<svg width="97" height="97" fill="none" xmlns="http://www.w3.org/2000/svg"><g clip-path="url(#clip0)"><path fill="#fff" d="M12 2h71v93H12z"/><path d="M56.79 94.153H17.596a2.714 2.714 0 01-2.71-2.71v-76.01a1.424 1.424 0 10-2.848 0v76.01A5.564 5.564 0 0017.597 97H56.79a1.424 1.424 0 100-2.847zM79.403 0H17.597a5.564 5.564 0 00-5.558 5.558v3.33a1.424 1.424 0 102.848 0v-3.33a2.714 2.714 0 012.71-2.71h61.806a2.714 2.714 0 012.71 2.71v85.884a2.714 2.714 0 01-2.71 2.71H63.197a1.424 1.424 0 100 2.848h16.206a5.564 5.564 0 005.558-5.558V5.558A5.564 5.564 0 0079.403 0z" fill="#000"/><path d="M28.241 52.937c-4.373 0-7.931 3.558-7.931 7.931 0 4.374 3.558 7.932 7.931 7.932 4.374 0 7.932-3.558 7.932-7.932 0-4.373-3.558-7.931-7.932-7.931zm0 13.016a5.09 5.09 0 01-5.084-5.085 5.09 5.09 0 015.084-5.084 5.09 5.09 0 015.084 5.084 5.09 5.09 0 01-5.084 5.084zm31.592-50.541c2.63 0 2.14 2.279 3.805 2.279.859 0 1.297-.491 1.297-1.297 0-1.228-1.806-3.297-5.102-3.297-4.068 0-6.172 3.051-6.172 6.61 0 4.349 2.332 6.61 6.277 6.61 2.788 0 4.997-1.806 4.997-3.63 0-.7-.701-1.104-1.403-1.104-1.385 0-1.332 2.42-3.594 2.42-2.49 0-3.401-1.999-3.401-4.296 0-2.735 1.49-4.295 3.296-4.295zM72.12 26.247c.894 0 1.455-.175 1.753-1l3.647-9.958c.123-.333.176-.614.176-.842 0-.964-.737-1.28-1.456-1.28-.666 0-1.087.404-1.35 1.263l-2.7 8.591h-.035L69.56 14.43c-.263-.86-.684-1.263-1.455-1.263-.719 0-1.456.316-1.456 1.28 0 .228.053.509.176.842l3.542 9.959c.298.824.859 1 1.753 1zM55.052 34.38h21.315a1.424 1.424 0 100-2.847H55.052a1.424 1.424 0 100 2.848zm0 5.412h14.01a1.424 1.424 0 100-2.847h-14.01a1.424 1.424 0 100 2.847zm0 5.361h14.01a1.424 1.424 0 100-2.848h-14.01a1.424 1.424 0 100 2.848zM34.75 74.075H21.732a1.424 1.424 0 100 2.848H34.75a1.424 1.424 0 100-2.848zm0 5.412H21.732a1.424 1.424 0 100 2.847H34.75a1.424 1.424 0 100-2.847zm6.187-20.039a1.423 1.423 0 102.802.507 5.077 5.077 0 015.003-4.171 5.09 5.09 0 015.084 5.084 5.09 5.09 0 01-5.084 5.084 5.072 5.072 0 01-3.415-1.317 1.424 1.424 0 10-1.913 2.11 7.914 7.914 0 005.328 2.055c4.373 0 7.931-3.558 7.931-7.932 0-4.373-3.558-7.931-7.931-7.931a7.923 7.923 0 00-7.805 6.51zM55.25 74.075H42.232a1.424 1.424 0 100 2.848H55.25a1.424 1.424 0 100-2.848zm0 5.412H42.232a1.424 1.424 0 100 2.847H55.25a1.424 1.424 0 100-2.847zm13.66-26.55c-4.373 0-7.931 3.558-7.931 7.931 0 4.374 3.558 7.932 7.931 7.932 4.374 0 7.932-3.558 7.932-7.932 0-4.373-3.558-7.931-7.932-7.931zm0 13.016a5.09 5.09 0 01-5.084-5.085 5.09 5.09 0 015.084-5.084 5.09 5.09 0 015.084 5.084 5.09 5.09 0 01-5.084 5.084zm-6.508 8.122a1.424 1.424 0 100 2.848h13.016a1.424 1.424 0 100-2.848H62.402zm13.016 8.259a1.424 1.424 0 100-2.847H62.402a1.424 1.424 0 100 2.847h13.016zM47.724 17.5A8.566 8.566 0 0036.11 9.494l-10.868 4.138a5.161 5.161 0 00-3.307 4.797v8.318c-.91.205-1.69.608-2.285 1.188-.642.624-1.378 1.758-1.241 3.614.183 2.49 1.837 5.13 3.992 5.789a12.906 12.906 0 0012.429 9.457c5.85 0 10.937-3.946 12.443-9.513 2.103-.75 3.643-3.364 3.818-5.734.178-2.415-1.117-4.193-3.367-4.764V17.5zm-21.469-1.207l10.868-4.138a5.645 5.645 0 015.28.636 5.644 5.644 0 012.474 4.708v1.966a6.594 6.594 0 00-3.785-1.19H28.568c-1.407 0-2.711.44-3.786 1.19V18.43c0-.942.592-1.801 1.473-2.136zM48.251 31.34c-.122 1.661-1.348 3.298-2.173 3.307a1.424 1.424 0 00-1.384 1.155c-.904 4.72-5.052 8.145-9.865 8.145-4.814 0-8.963-3.427-9.865-8.149a1.423 1.423 0 00-1.497-1.153c-.812.061-2.096-1.644-2.219-3.305-.068-.921.275-1.255.387-1.364.302-.294.818-.481 1.452-.528a1.18 1.18 0 01.173 0 1.421 1.421 0 001.522-1.42v-3.121a3.79 3.79 0 013.786-3.785h12.524a3.79 3.79 0 013.785 3.785v3.115a1.424 1.424 0 001.423 1.424h.008c.035 0 .07 0 .106.002 1.966.146 1.872 1.414 1.837 1.892z" fill="#000"/><path d="M29.962 31.502a1.54 1.54 0 100-3.081 1.54 1.54 0 000 3.081zm9.734 0a1.54 1.54 0 100-3.081 1.54 1.54 0 000 3.081zm-.05 2.009h-9.634a2.145 2.145 0 00-2 2.92 7.267 7.267 0 006.817 4.666 7.267 7.267 0 006.817-4.665 2.143 2.143 0 00-2-2.921zm-4.817 4.738a4.434 4.434 0 01-3.652-1.89h7.304a4.434 4.434 0 01-3.652 1.89z" fill="#000"/></g><defs><clipPath id="clip0"><path fill="#fff" d="M0 0h97v97H0z"/></clipPath></defs></svg>