<svg width="50" height="48" fill="none" xmlns="http://www.w3.org/2000/svg"><path d="M25 .532C11.187.532 0 11.213 0 24.388 0 34.93 7.162 43.87 17.094 47.022c1.25.224 1.708-.514 1.708-1.147 0-.567-.02-2.068-.031-4.056-6.954 1.438-8.421-3.201-8.421-3.201-1.137-2.753-2.781-3.49-2.781-3.49-2.265-1.479.175-1.448.175-1.448 2.51.166 3.829 2.458 3.829 2.458 2.23 3.647 5.852 2.593 7.281 1.984.225-1.543.869-2.593 1.584-3.19-5.553-.597-11.388-2.648-11.388-11.789 0-2.603.969-4.731 2.573-6.4-.281-.603-1.125-3.029.219-6.314 0 0 2.093-.64 6.875 2.445 2-.53 4.125-.793 6.25-.805 2.125.012 4.25.275 6.25.805 4.75-3.085 6.843-2.445 6.843-2.445 1.344 3.285.5 5.71.25 6.314 1.594 1.669 2.563 3.797 2.563 6.4 0 9.165-5.844 11.182-11.406 11.769.875.716 1.687 2.178 1.687 4.414 0 3.192-.031 5.758-.031 6.532 0 .626.437 1.372 1.719 1.133C42.844 43.86 50 34.914 50 24.388 50 11.213 38.806.532 25 .532z" fill="#fff"/></svg>