<svg width="91" height="91" fill="none" xmlns="http://www.w3.org/2000/svg"><path d="M79.092 38.374a1.244 1.244 0 00-1.244 1.244v22.836a1.244 1.244 0 102.488 0V39.618a1.244 1.244 0 00-1.244-1.244zM69.85 42.3a1.244 1.244 0 00-1.244 1.245v16.53h-.86c-7.267 0-14.195 6.385-18.779 10.588-1.395 1.279-3.114 2.872-3.762 3.147-.653-.267-2.388-1.874-3.794-3.158-4.606-4.202-11.566-10.578-19.023-10.578h-.527V43.367a1.244 1.244 0 00-2.488 0v18.016a1.192 1.192 0 001.244 1.18h1.77c6.494 0 13.025 5.992 17.346 9.935 2.892 2.639 4.223 3.821 5.478 3.821 1.234 0 2.56-1.19 5.438-3.831 4.3-3.943 10.798-9.927 17.098-9.927h2.103a1.19 1.19 0 001.244-1.179V43.545A1.244 1.244 0 0069.85 42.3z" fill="#000"/><path d="M85.46 36.52c0-.646-.296-1.853-2.283-2.68L49.659 19.882c-2.332-.97-5.986-.97-8.318 0L7.824 33.84c-1.988.828-2.284 2.035-2.284 2.681 0 .646.296 1.854 2.284 2.681L41.34 53.157c1.166.485 2.663.729 4.16.729 1.496 0 2.992-.243 4.158-.729l33.517-13.956c1.988-.827 2.285-2.035 2.285-2.68zm-3.24.384L48.703 50.86c-1.707.71-4.7.71-6.405 0L8.78 36.904a2.444 2.444 0 01-.67-.384 2.44 2.44 0 01.67-.384l33.517-13.955c1.707-.71 4.7-.71 6.406 0L82.22 36.136c.243.092.469.221.67.384a2.445 2.445 0 01-.67.384zm-3.172 24.453a6.597 6.597 0 10-.04 13.194 6.597 6.597 0 00.04-13.194zm0 10.705a4.108 4.108 0 11-.04-8.217 4.108 4.108 0 01.04 8.217z" fill="#000"/></svg>