<svg width="101" height="99" fill="none" xmlns="http://www.w3.org/2000/svg"><path d="M10.1 62.951h20.2c1.86-.001 3.365-1.461 3.367-3.263v-3.264c-.002-1.801-1.508-3.262-3.366-3.263H10.1c-1.86.001-3.365 1.462-3.367 3.263v3.264c.002 1.802 1.508 3.262 3.366 3.263zm0-6.527h20.2l.003 3.264H10.1v-3.264zM8.417 79.27h23.567c.93 0 1.683-.73 1.683-1.632 0-.9-.753-1.63-1.683-1.63H8.417c-.93 0-1.683.73-1.683 1.63 0 .902.753 1.633 1.683 1.633zm0 6.528H45.45c.93 0 1.684-.73 1.684-1.632 0-.901-.754-1.632-1.684-1.632H8.417c-.93 0-1.683.73-1.683 1.632 0 .901.753 1.632 1.683 1.632zm0 6.527h13.467c.93 0 1.683-.73 1.683-1.632 0-.9-.754-1.632-1.683-1.632H8.417c-.93 0-1.683.731-1.683 1.632 0 .902.753 1.632 1.683 1.632zm38.716-55.482H50.5c1.858-.002 3.365-1.462 3.366-3.264v-3.263c-.001-1.802-1.508-3.262-3.366-3.264h-3.367c-1.859.002-3.365 1.462-3.367 3.264v3.263c.002 1.802 1.508 3.262 3.367 3.264zm0-6.527H50.5l.002 3.263h-3.369v-3.263zm0-6.528H50.5c1.858-.002 3.365-1.462 3.366-3.264v-3.263c-.001-1.802-1.508-3.262-3.366-3.264h-3.367c-1.859.002-3.365 1.462-3.367 3.264v3.263c.002 1.802 1.508 3.262 3.367 3.264zm0-6.527H50.5l.002 3.263h-3.369v-3.263zm0-6.528H50.5c1.858-.001 3.365-1.461 3.366-3.263V4.206C53.865 2.404 52.358.944 50.5.943h-3.367c-1.859.001-3.365 1.461-3.367 3.263V7.47c.002 1.802 1.508 3.262 3.367 3.263zm0-6.527H50.5l.002 3.264h-3.369V4.206zM60.6 23.788h3.367c1.859-.002 3.365-1.462 3.367-3.264v-3.263c-.002-1.802-1.508-3.262-3.367-3.264H60.6c-1.858.002-3.364 1.462-3.366 3.264v3.263c.002 1.802 1.508 3.262 3.366 3.264zm0-6.527h3.367l.003 3.263H60.6v-3.263zm13.467 19.582h3.366c1.859-.002 3.365-1.462 3.367-3.264v-3.263c-.002-1.802-1.508-3.262-3.367-3.264h-3.366c-1.859.002-3.365 1.462-3.368 3.264v3.263c.003 1.802 1.51 3.262 3.368 3.264zm0-6.527h3.366l.003 3.263h-3.37v-3.263zm0-19.583h3.366c1.859-.001 3.365-1.461 3.367-3.263V4.206C80.798 2.404 79.292.944 77.433.943h-3.366c-1.859.001-3.365 1.461-3.368 3.263V7.47c.003 1.802 1.51 3.262 3.368 3.263zm0-6.527h3.366l.003 3.264h-3.37V4.206zM47.133 62.951H50.5c1.858-.001 3.365-1.461 3.366-3.263v-3.264c-.001-1.801-1.508-3.262-3.366-3.263h-3.367c-1.859.001-3.365 1.462-3.367 3.263v3.264c.002 1.802 1.508 3.262 3.367 3.263zm0-6.527H50.5l.002 3.264h-3.369v-3.264zm26.934 6.527h3.366c1.859-.001 3.365-1.461 3.367-3.263v-3.264c-.002-1.801-1.508-3.262-3.367-3.263h-3.366c-1.859.001-3.365 1.462-3.368 3.263v3.264c.003 1.802 1.51 3.262 3.368 3.263zm0-6.527h3.366l.003 3.264h-3.37v-3.264zM60.6 76.007h3.367c1.859-.003 3.365-1.463 3.367-3.265V69.48c-.002-1.802-1.508-3.262-3.367-3.264H60.6c-1.858.002-3.364 1.462-3.366 3.264v3.263c.002 1.802 1.508 3.262 3.366 3.265zm0-6.528h3.367l.003 3.263H60.6V69.48zm13.467 19.582h3.366c1.859-.002 3.365-1.462 3.367-3.263v-3.264c-.002-1.802-1.508-3.262-3.367-3.264h-3.366c-1.859.002-3.365 1.462-3.368 3.264v3.264c.003 1.801 1.51 3.261 3.368 3.263zm0-6.527h3.366l.003 3.264h-3.37v-3.264zm13.466-58.746H90.9c1.858-.002 3.364-1.462 3.366-3.264v-3.263c-.002-1.802-1.508-3.262-3.366-3.264h-3.367c-1.858.002-3.365 1.462-3.366 3.264v3.263c.001 1.802 1.508 3.262 3.366 3.264zm0-6.527H90.9l.002 3.263h-3.369v-3.263zm0 58.746H90.9c1.858-.003 3.364-1.463 3.366-3.265V69.48c-.002-1.802-1.508-3.262-3.366-3.264h-3.367c-1.858.002-3.365 1.462-3.366 3.264v3.263c.001 1.802 1.508 3.262 3.366 3.265zm0-6.528H90.9l.002 3.263h-3.369V69.48zm0-58.746H90.9c1.858-.001 3.364-1.461 3.366-3.263V4.206C94.264 2.404 92.758.944 90.9.943h-3.367c-1.858.001-3.365 1.461-3.366 3.263V7.47c.001 1.802 1.508 3.262 3.366 3.263zm0-6.527H90.9l.002 3.264h-3.369V4.206z" fill="#D4C0FF"/><path d="M5.05 98.852h90.9c2.788-.003 5.047-2.193 5.05-4.896V48.265c-.003-2.702-2.262-4.892-5.05-4.895h-1.683c-.002-1.802-1.508-3.262-3.367-3.264h-3.367c-1.858.002-3.365 1.462-3.366 3.264H67.333c-.001-1.802-1.508-3.262-3.366-3.264H60.6c-1.859.002-3.364 1.462-3.367 3.264h-3.366c-.002-1.802-1.508-3.262-3.367-3.264h-3.367c-1.858.002-3.365 1.462-3.366 3.264h-2.958a3.4 3.4 0 01-2.381-.956l-3.775-3.659a6.795 6.795 0 00-4.762-1.912H10.508a6.793 6.793 0 00-4.761 1.912l-3.774 3.659A6.381 6.381 0 000 47.029v46.927c.003 2.703 2.262 4.893 5.05 4.896zM87.533 43.37H90.9v3.264h-3.367V43.37zm-26.933 0h3.367l.001 1.626-.002.005v1.633H60.6V43.37zm-13.467 0H50.5l.002 1.626-.002.005v1.633h-3.367V43.37zM3.367 47.03a3.195 3.195 0 01.986-2.309l3.774-3.658a3.402 3.402 0 012.381-.957h19.383a3.402 3.402 0 012.382.957l3.774 3.658a6.796 6.796 0 004.762 1.913h2.958c.001 1.801 1.508 3.262 3.366 3.263H50.5c1.859-.001 3.365-1.462 3.367-3.263h3.366c.003 1.801 1.508 3.262 3.367 3.263h3.367c1.858-.001 3.365-1.462 3.366-3.263h16.834c.001 1.801 1.508 3.262 3.367 3.263H90.9c1.859-.001 3.364-1.462 3.367-3.263h1.683c.929.001 1.682.73 1.683 1.631v45.691c-.001.901-.754 1.63-1.683 1.632H5.05c-.929-.001-1.682-.73-1.683-1.632V47.03z" fill="#D4C0FF"/></svg>