<svg width="261" height="261" fill="none" xmlns="http://www.w3.org/2000/svg"><g clip-path="url(#clip0)" fill="#fff"><path d="M197.926 0h-174C11.918.014 2.188 9.744 2.175 21.75v139.201a21.75 21.75 0 0016.316 21.062l2.175-8.421a13.05 13.05 0 01-9.792-12.641v-139.2c0-7.208 5.843-13.051 13.05-13.051h174.001c7.207 0 13.05 5.843 13.05 13.05v4.35h8.7v-4.35C219.662 9.744 209.932.014 197.926 0z"/><path d="M28.275 17.4h-8.7v8.7h8.7v-8.7zm17.4 0h-8.7v8.7h8.7v-8.7zm17.4 0h-8.7v8.7h8.7v-8.7zm194.477 223.126l-41.26-41.26a60.206 60.206 0 005.168-12.215h6.916v-8.7h-5.046a58.615 58.615 0 00-3.654-31.172V104.4h-8.7v27.701a61.154 61.154 0 00-8.7-9.03v-36.07h-8.7v29.988a60.591 60.591 0 00-8.7-4.154V69.6h-8.7v40.595a60.321 60.321 0 00-8.7-1.223V78.3h-8.7v30.672a60.301 60.301 0 00-8.7 1.223V95.701h-8.7v17.134a60.591 60.591 0 00-8.7 4.154V91.35h-8.7v31.721a61.154 61.154 0 00-8.7 9.03V100.05h-8.7v47.129a58.596 58.596 0 00-3.654 31.172H45.675v8.7h59.117c9.541 32.18 43.362 50.533 75.542 40.992a60.807 60.807 0 0017.74-8.593l40.277 40.277a4.35 4.35 0 006.151 0l13.05-13.05a4.35 4.35 0 000-6.151zm-94.426-18.675c-28.817-.031-52.169-23.384-52.2-52.2 0-28.829 23.371-52.2 52.2-52.2 28.829 0 52.2 23.371 52.2 52.2 0 28.829-23.371 52.2-52.2 52.2zm78.3 28.649l-36.592-36.592a61.663 61.663 0 006.547-7.252l36.944 36.945-6.899 6.899z"/><path d="M163.126 126.151c-24.025 0-43.501 19.475-43.501 43.5 0 24.024 19.476 43.5 43.501 43.5 24.024 0 43.5-19.476 43.5-43.5-.026-24.014-19.487-43.474-43.5-43.5zm0 78.3a34.802 34.802 0 01-30.094-17.4h60.187a34.801 34.801 0 01-30.093 17.4zm-33.656-26.1a34.481 34.481 0 0111.906-35.823v27.123h8.7v-32.238a34.624 34.624 0 018.7-2.262v34.5h8.7v-34.5a34.646 34.646 0 018.7 2.262v32.238h8.7v-27.123a34.485 34.485 0 0111.906 35.823H129.47z"/><path d="M224.026 34.8h-174c-12.007.014-21.737 9.744-21.75 21.75v139.201c.013 12.006 9.743 21.736 21.75 21.75h56.549v-8.7h-56.55c-7.207 0-13.05-5.843-13.05-13.05v-139.2c0-7.208 5.843-13.05 13.05-13.05h174.001c7.207 0 13.05 5.842 13.05 13.05v139.2a13.053 13.053 0 01-3.262 8.63l6.525 5.755a21.721 21.721 0 005.437-14.385v-139.2c-.014-12.007-9.744-21.737-21.75-21.751z"/><path d="M54.375 52.2h-8.7v8.7h8.7v-8.7zm17.4 0h-8.7v8.7h8.7v-8.7zm17.4 0h-8.7v8.7h8.7v-8.7zm-26.1 91.351h-8.7v26.1h8.7v-26.1zm17.4-26.101h-8.7v52.201h8.7V117.45zm17.401 13.05h-8.7v39.151h8.7V130.5z"/></g><defs><clipPath id="clip0"><path fill="#fff" d="M0 0h261v261H0z"/></clipPath></defs></svg>