<svg width="113" height="113" fill="none" xmlns="http://www.w3.org/2000/svg"><path d="M68.86 47.672h37.078a5.303 5.303 0 005.296-5.297V7.062a5.303 5.303 0 00-5.296-5.296h-52.97a5.303 5.303 0 00-5.296 5.296v16.723a90.662 90.662 0 00-12.36-.832c-16.263 0-33.546 4.331-33.546 12.36v42.374c0 8.029 17.283 12.36 33.547 12.36a90.33 90.33 0 0012.359-.834v16.725a5.303 5.303 0 005.297 5.296h52.969a5.302 5.302 0 005.296-5.296V70.625a5.303 5.303 0 00-5.296-5.297H68.859V47.672zM51.202 7.062c0-.972.791-1.765 1.766-1.765h52.969c.974 0 1.765.793 1.765 1.766v35.312c0 .973-.791 1.766-1.765 1.766h-52.97a1.767 1.767 0 01-1.765-1.766V7.062zm-3.531 28.966c-3.185.663-7.672 1.05-12.36 1.05-7.696 0-12.846-.973-15.004-1.766 2.158-.792 7.308-1.765 15.005-1.765 4.687 0 9.174.387 12.359 1.05v1.43zm-12.36-9.544c4.32 0 8.46.302 12.36.867v3.655c-3.36-.632-7.709-.99-12.36-.99-18.021 0-19.421 4.053-19.421 5.297 0 1.242 1.4 5.296 19.422 5.296 4.65 0 8.999-.358 12.359-.99v2.756c0 .302.04.595.09.883a87.328 87.328 0 01-12.45.883c-18.595 0-30.015-5.142-30.015-8.828 0-3.687 11.42-8.829 30.015-8.829zm0 60.032c-18.595 0-30.015-5.142-30.015-8.829V69.32c5.881 4.319 18.214 6.602 30.015 6.602a90.33 90.33 0 0012.36-.834v10.56c-3.9.566-8.04.868-12.36.868zm72.391-15.891v35.313c0 .974-.791 1.765-1.765 1.765h-52.97a1.766 1.766 0 01-1.765-1.765V70.625c0-.975.791-1.766 1.766-1.766h52.969c.974 0 1.765.791 1.765 1.766zm-54.734-5.297a5.303 5.303 0 00-5.297 5.297v.899c-3.9.565-8.04.867-12.36.867-18.595 0-30.015-5.142-30.015-8.829v-8.367c5.881 4.319 18.214 6.602 30.015 6.602 11.802 0 24.135-2.283 30.016-6.602v10.133h-12.36zm-17.657-7.062c-18.595 0-30.015-5.142-30.015-8.828V41.07c5.881 4.319 18.214 6.602 30.015 6.602 5.004 0 9.952-.403 14.412-1.142a5.24 5.24 0 003.245 1.142h12.36v1.766c0 3.686-11.42 8.828-30.016 8.828z" fill="#D4C0FF"/><path d="M68.86 8.828H54.733v14.125H68.86V8.828zm-3.532 10.594h-7.062v-7.063h7.062v7.063zM86.516 8.828H72.39v14.125h14.125V8.828zm-3.532 10.594h-7.062v-7.063h7.062v7.063zm21.188-10.594H90.047v14.125h14.125V8.828zm-3.531 10.594h-7.063v-7.063h7.063v7.063zM68.86 26.484H54.733V40.61H68.86V26.484zm-3.532 10.594h-7.062v-7.062h7.062v7.062zm21.188-10.594H72.39V40.61h14.125V26.484zm-3.532 10.594h-7.062v-7.062h7.062v7.062zm21.188-10.594H90.047V40.61h14.125V26.484zm-3.531 10.594h-7.063v-7.062h7.063v7.062zM79.453 72.39H68.86v7.063h-7.062v7.063h-7.063v17.656h24.72V72.391zM58.266 90.048h3.53v10.594h-3.53V90.047zm7.062 10.594V82.984h3.531v17.657h-3.53zm10.594 0H72.39v-24.72h3.53v24.72zm7.062-21.189h21.188v3.531H82.984v-3.53zm0-7.063h21.188v3.532H82.984V72.39zm0 14.126h21.188v3.53H82.984v-3.53zm17.657 7.062h3.531v3.531h-3.531v-3.53zm-17.657 0H97.11v3.531H82.984v-3.53zm0 7.063h21.188v3.531H82.984v-3.531z" fill="#D4C0FF"/></svg>