<svg width="109" height="109" fill="none" xmlns="http://www.w3.org/2000/svg"><path d="M65.036 31.793l-2.906-2.18 9.81-12.354a5.579 5.579 0 00.908-5.995c-1.09-3.088-4.541-4.542-7.63-3.452l-1.09.364-1.271-3.453 1.09-.362c4.904-1.999 10.536.544 12.353 5.45 1.272 3.27.726 6.903-1.453 9.628l-9.81 12.354zM34.335 43.42l-14.17-1.636c-5.45-.545-9.447-5.631-8.901-11.081.362-3.816 2.906-6.904 6.358-8.357l1.635-.727 1.27 3.452-1.634.726c-3.27 1.272-4.904 5.087-3.633 8.357.908 2.18 2.907 3.815 5.268 3.997l14.17 1.635-.363 3.633z" fill="#E8821C"/><path d="M47.96 45.962l-7.085-.726c-8.175-.727-15.26-5.996-18.349-13.807l-4.723-11.99c-.727-1.817.181-3.996 1.998-4.724h.182L58.315.91c1.817-.727 3.996.363 4.723 2.18l3.996 11.99c2.363 7.267.909 15.26-4.177 21.074l-4.906 5.631L77.39 92.651h7.267c1.453 0 2.906.908 3.27 2.361l1.09 2.725-26.706 10.537-1.09-2.725c-.545-1.453-.181-2.906.91-3.996l5.267-5.088L47.96 45.962z" fill="#F4A422"/><path d="M55.772 33.79l-2.544-2.543c7.994-7.993-.18-21.254-.18-21.436l3.087-1.999c.364.727 9.629 15.987-.363 25.978z" fill="#EDC17C"/><path d="M87.926 95.194c-.544-1.454-1.817-2.362-3.27-2.362H77.39l-9.992 3.997-5.268 5.086c-1.09 1.09-1.454 2.544-.908 3.997l1.089 2.725 26.705-10.536-1.09-2.907z" fill="#E8821C"/><path d="M84.293 73.03L73.94 45.236c-.728-1.817-2.725-2.907-4.724-2.18h-.182l-19.983 8.72c-1.09.545-1.817 1.453-2.18 2.543l-1.453 7.267L0 79.752v25.434l52.683-21.8 13.443 1.635c.727 0 1.454 0 1.999-.364l14.352-7.085c1.634-.908 2.362-2.725 1.816-4.542z" fill="#EFCCBF"/><path d="M45.417 61.586L27.25 68.852l7.267 21.982 18.166-7.448-7.266-21.8z" fill="#676B7F"/><path d="M90.833 7.086v1.816c0 5.995-4.905 10.9-10.9 10.9 5.995 0 10.9 4.905 10.9 10.9v1.817-1.817c0-5.995 4.906-10.9 10.9-10.9-5.994 0-10.9-4.905-10.9-10.9V7.086zM10.9 43.419v1.817c0 5.994-4.905 10.9-10.9 10.9 5.995 0 10.9 4.904 10.9 10.9v1.816-1.816c0-5.996 4.905-10.9 10.9-10.9-5.995 0-10.9-4.906-10.9-10.9v-1.817zm87.2 0v1.817c0 5.994-4.905 10.9-10.9 10.9 5.995 0 10.9 4.904 10.9 10.9v1.816-1.816c0-5.996 4.905-10.9 10.9-10.9-5.995 0-10.9-4.906-10.9-10.9v-1.817z" fill="#F4C167"/><path d="M34.517 90.834L0 105.186V79.752l27.25-10.9 7.267 21.982zm3.815-8.72l3.27-1.09-5.268-15.805-3.27 1.271 5.268 15.624z" fill="#4A4A56"/><path d="M75.392 49.05l-10.537 3.634 1.09 3.27 10.719-3.452-1.272-3.451zm3.451 9.265l-10.355 3.453 1.09 3.27 10.537-3.452-1.272-3.27zm3.271 9.083l-9.992 3.453 1.09 3.27 10.173-3.27-1.271-3.453z" fill="#D8B4AD"/><path d="M65.036 31.793l-2.906-2.18 9.81-12.354a5.579 5.579 0 00.908-5.995c-1.09-3.088-4.541-4.542-7.63-3.452l-1.09.364-1.271-3.453 1.09-.362c4.904-1.999 10.536.544 12.353 5.45 1.272 3.27.726 6.903-1.453 9.628l-9.81 12.354zM34.335 43.42l-14.17-1.636c-5.45-.545-9.447-5.631-8.901-11.081.362-3.816 2.906-6.904 6.358-8.357l1.635-.727 1.27 3.452-1.634.726c-3.27 1.272-4.904 5.087-3.633 8.357.908 2.18 2.907 3.815 5.268 3.997l14.17 1.635-.363 3.633z" fill="#E8821C"/><path d="M47.96 45.962l-7.085-.726c-8.175-.727-15.26-5.996-18.349-13.807l-4.723-11.99c-.727-1.817.181-3.996 1.998-4.724h.182L58.315.91c1.817-.727 3.996.363 4.723 2.18l3.996 11.99c2.363 7.267.909 15.26-4.177 21.074l-4.906 5.631L77.39 92.651h7.267c1.453 0 2.906.908 3.27 2.361l1.09 2.725-26.706 10.537-1.09-2.725c-.545-1.453-.181-2.906.91-3.996l5.267-5.088L47.96 45.962z" fill="#F4A422"/><path d="M55.772 33.79l-2.544-2.543c7.994-7.993-.18-21.254-.18-21.436l3.087-1.999c.364.727 9.629 15.987-.363 25.978z" fill="#EDC17C"/><path d="M87.926 95.194c-.544-1.454-1.817-2.362-3.27-2.362H77.39l-9.992 3.997-5.268 5.086c-1.09 1.09-1.454 2.544-.908 3.997l1.089 2.725 26.705-10.536-1.09-2.907z" fill="#E8821C"/><path d="M84.293 73.03L73.94 45.236c-.728-1.817-2.725-2.907-4.724-2.18h-.182l-19.983 8.72c-1.09.545-1.817 1.453-2.18 2.543l-1.453 7.267L0 79.752v25.434l52.683-21.8 13.443 1.635c.727 0 1.454 0 1.999-.364l14.352-7.085c1.634-.908 2.362-2.725 1.816-4.542z" fill="#EFCCBF"/><path d="M45.417 61.586L27.25 68.852l7.267 21.982 18.166-7.448-7.266-21.8z" fill="#676B7F"/><path d="M90.833 7.086v1.816c0 5.995-4.905 10.9-10.9 10.9 5.995 0 10.9 4.905 10.9 10.9v1.817-1.817c0-5.995 4.906-10.9 10.9-10.9-5.994 0-10.9-4.905-10.9-10.9V7.086zM10.9 43.419v1.817c0 5.994-4.905 10.9-10.9 10.9 5.995 0 10.9 4.904 10.9 10.9v1.816-1.816c0-5.996 4.905-10.9 10.9-10.9-5.995 0-10.9-4.906-10.9-10.9v-1.817zm87.2 0v1.817c0 5.994-4.905 10.9-10.9 10.9 5.995 0 10.9 4.904 10.9 10.9v1.816-1.816c0-5.996 4.905-10.9 10.9-10.9-5.995 0-10.9-4.906-10.9-10.9v-1.817z" fill="#F4C167"/><path d="M34.517 90.834L0 105.186V79.752l27.25-10.9 7.267 21.982zm3.815-8.72l3.27-1.09-5.268-15.805-3.27 1.271 5.268 15.624z" fill="#4A4A56"/><path d="M75.392 49.05l-10.537 3.634 1.09 3.27 10.719-3.452-1.272-3.451zm3.451 9.265l-10.355 3.453 1.09 3.27 10.537-3.452-1.272-3.27zm3.271 9.083l-9.992 3.453 1.09 3.27 10.173-3.27-1.271-3.453z" fill="#D8B4AD"/></svg>